# xmcd
#
# Track frame offsets:
#	150
#	15967
#	33169
#	52371
#	68425
#	87874
#	101763
#	115180
#	128143
#	143273
#	158414
#	174334
#	187849
#	207795
#	226974
#	238959
#	257537
#	274721
#	288144
#	304427
#
# Disc length: 4306 seconds
#
# Revision: 1
# Processed by: cddbd v1.5.2PL0 Copyright (c) Steve Scherf et al.
# Submitted via: EasyCDDAExtractor 11.5.0.1
#
DISCID=0010d014
DTITLE=Various Artist - NCT 076
DYEAR=2005
DGENRE=Country
TTITLE0=Gretchen Wilson - All Jacked Up
TTITLE1=Keith Urban - Better Life
TTITLE2=Dierks Bentley - Come A Little Closer
TTITLE3=Darryl Worley - I Love Her She Hates Me
TTITLE4=Rascal Flatts - Skin (Sarabeth)
TTITLE5=Joe Nichols - Tequila Makes Her Clothes Fall Off
TTITLE6=Buddy Jewell - So Gone
TTITLE7=The Warren Brothers - Change
TTITLE8=Catherine Britt and Elton John - Where We Both Say Goodbye
TTITLE9=Terri Clark - She Didn't Have Time
TTITLE10=Josh Turner - Your Man
TTITLE11=Ray Scott - My Kind Of Music
TTITLE12=Chely Wright - The River
TTITLE13=Kevin Fowler - Don't Touch My Willie
TTITLE14=Blake Shelton - Nobody But Me
TTITLE15=The Greencards - Time
TTITLE16=Jon Randall - I Shouldn't Do This
TTITLE17=Wayne Warner - 10,000 Tears Ago
TTITLE18=Jenai - Hallelujah
TTITLE19=Kacey Jones - Down At The Piggly Wiggly
EXTD=Nu Country Traxx 76
EXTT0=
EXTT1=
EXTT2=
EXTT3=
EXTT4=
EXTT5=
EXTT6=
EXTT7=
EXTT8=
EXTT9=
EXTT10=
EXTT11=
EXTT12=
EXTT13=
EXTT14=
EXTT15=
EXTT16=
EXTT17=
EXTT18=
EXTT19=
PLAYORDER=
